<?xml version="1.0" encoding="UTF-8"?>
<svg id="Calque_4" xmlns="http://www.w3.org/2000/svg" version="1.1" viewBox="0 0 1673.24 865.05">
  <!-- Generator: Adobe Illustrator 30.0.0, SVG Export Plug-In . SVG Version: 2.1.1 Build 123)  -->
  <defs>
    <style>
      .st0 {
        fill: #2e2e2e;
      }
    </style>
  </defs>
  <g>
    <path class="st0" d="M410.86,639.24h7.98l31.13,82.67h-7.07l-9.69-26.23h-36.83l-9.69,26.23h-6.96l31.13-82.67ZM431.16,690.1l-12.09-32.73c-1.37-3.31-2.85-7.41-4.22-10.95h-.11l-4.11,10.95-12.09,32.73h32.61Z"/>
    <path class="st0" d="M484.3,639.24h52.11v5.7h-45.5v31.02h43.1v5.82h-43.1v34.44h45.5v5.7h-52.11v-82.67Z"/>
    <path class="st0" d="M571.54,696.25h6.73c1.03,14.14,9.58,21.67,26.23,21.67,14.6,0,23.26-6.61,23.26-18.25,0-8.67-5.02-14.48-15.39-16.08l-20.3-3.08c-12.09-1.82-18.82-9.92-18.82-20.75,0-13.91,11.06-22.24,28.85-22.24s27.82,8.32,29.76,23.26h-6.73c-1.37-11.18-9.35-17.56-23.15-17.56s-22.24,5.93-22.24,16.19c0,7.98,5.02,13.8,15.74,15.39l19.73,2.97c12.09,1.82,19.38,9.69,19.27,21.89-.11,15.28-11.52,23.95-30.22,23.95-21.55,0-31.93-11.29-32.73-27.37Z"/>
    <path class="st0" d="M693.79,644.94h-28.51v-5.7h63.51v5.7h-28.39v76.97h-6.61v-76.97Z"/>
    <path class="st0" d="M765.86,639.24h6.61v36.38h48.92v-36.38h6.61v82.67h-6.61v-40.48h-48.92v40.48h-6.61v-82.67Z"/>
    <path class="st0" d="M873.4,639.24h52.11v5.7h-45.5v31.02h43.1v5.82h-43.1v34.44h45.5v5.7h-52.11v-82.67Z"/>
    <path class="st0" d="M990.28,644.94h-28.51v-5.7h63.51v5.7h-28.39v76.97h-6.61v-76.97Z"/>
    <path class="st0" d="M1062.36,639.24h6.61v82.67h-6.61v-82.67Z"/>
    <path class="st0" d="M1111.05,680.52c0-25.09,14.71-42.99,38.54-42.99,18.93,0,31.47,11.29,33.87,28.05h-6.61c-2.62-13.34-12.09-22.35-27.25-22.35-20.41,0-31.7,15.62-31.7,37.29s11.29,37.4,31.7,37.4c15.39,0,25.54-9.47,27.6-24.63h6.61c-1.71,18.25-15.17,30.33-34.21,30.33-23.83,0-38.54-18.02-38.54-43.1Z"/>
    <path class="st0" d="M1222.46,696.25h6.73c1.03,14.14,9.58,21.67,26.23,21.67,14.6,0,23.26-6.61,23.26-18.25,0-8.67-5.02-14.48-15.39-16.08l-20.3-3.08c-12.09-1.82-18.82-9.92-18.82-20.75,0-13.91,11.06-22.24,28.85-22.24s27.82,8.32,29.76,23.26h-6.73c-1.37-11.18-9.35-17.56-23.15-17.56s-22.24,5.93-22.24,16.19c0,7.98,5.02,13.8,15.74,15.39l19.73,2.97c12.09,1.82,19.38,9.69,19.27,21.89-.11,15.28-11.52,23.95-30.22,23.95-21.55,0-31.93-11.29-32.73-27.37Z"/>
  </g>
  <g>
    <path class="st0" d="M604.76,590.91v-156.15h-55.15v162.71h46.38c3.05-2.16,5.99-4.35,8.78-6.56Z"/>
    <path class="st0" d="M292.81,361.69c0-117.89,44.12-197.86,151.32-206.47,16.2,1.72,96.86,43.78,127.54,63.42l16.89-50.33c-49.98-20.68-107.2-26.88-135.46-26.88-119.95,0-216.47,115.47-216.47,250.94,0,86.08,39.45,160.19,96.16,205.1h69.95c-68.71-36.88-109.93-121.69-109.93-235.78Z"/>
    <polygon class="st0" points="733.68 147.63 681.98 151.08 681.98 597.47 733.68 597.47 733.68 147.63"/>
    <path class="st0" d="M813.18,466.48c0-93.76,37.23-136.15,85.14-144.43,65.49,10.34,106.51,71.69,106.51,160.97,0,53.94-14.62,91.2-35.49,114.45h38.89c30.4-29.93,50.72-73.22,50.72-122.72,0-93.76-73.42-165.8-149.94-165.8s-149.94,72.04-149.94,165.8c0,49.5,20.32,92.8,50.72,122.72h45.34c-28.57-28.8-41.94-75.59-41.94-131Z"/>
    <path class="st0" d="M1186.37,557.48l58.6-166.14,62.16,206.14h42.97c3.66-12.59,7.89-26.78,12.06-40.34l74.46-241.29h-19.65c-4.14,18.61-27.23,101.68-35.16,127.19l-33.43,109.96-72.39-237.15h-21.03l-83.42,240.6-72.73-240.6h-55.84l86.75,281.63h43.65c4.04-13.1,8.69-27.54,12.99-39.99Z"/>
  </g>
</svg>