<?xml version="1.0" encoding="UTF-8"?>
<svg id="Calque_4" xmlns="http://www.w3.org/2000/svg" version="1.1" viewBox="0 0 1673.24 865.05">
  <!-- Generator: Adobe Illustrator 30.0.0, SVG Export Plug-In . SVG Version: 2.1.1 Build 123)  -->
  <defs>
    <style>
      .st0 {
        fill: #2e2e2e;
      }
    </style>
  </defs>
  <g>
    <path class="st0" d="M467.15,694.21l-10.62-20.87h4.62l9.61,18.93,5.43-9.5c1.45-2.57,3.74-6.78,5.14-9.42h1.53l-11.55,20.07v16.28h-4.15v-15.47Z"/>
    <path class="st0" d="M492.29,691.56c0-10.02,7.22-18.95,16.1-18.95s16.1,8.93,16.1,18.95-7.24,18.85-16.1,18.85-16.1-8.83-16.1-18.85ZM520.15,693.33c0-11.66-5.89-19.16-12.9-19.68-6.36,1.01-10.62,6.31-10.62,16.18,0,11.5,5.74,19.06,12.83,19.55,6.52-.99,10.7-6.33,10.7-16.05Z"/>
    <path class="st0" d="M564.33,696.65c0,12.67-8.15,13.76-11.94,13.76-7.17,0-12.85-3.82-12.85-12.28v-24.8h4.15v23.16c0,8.8,2.78,12.77,9.14,12.77,4.75,0,10.41-2.18,10.41-12.62v-5.45c0-6.65-.18-15.6-.26-17.86h1.35v23.31Z"/>
    <path class="st0" d="M580.75,673.34h8.31c12.88,0,14.18,6.26,14.18,9.5,0,6.18-4.8,9.01-7.58,9.84l9.19,17.01h-4.83l-8.7-16.3c-2.26-.1-4.73-.39-6.41-.65v16.95h-4.15v-36.35ZM584.9,691.77c1.9.21,4.1.36,5.84.36.73,0,1.4-.03,1.9-.1,2.34-.83,6.15-2.91,6.15-8.88,0-8.15-7.04-8.72-10.98-8.72h-2.91v17.34Z"/>
    <path class="st0" d="M668.13,706.47c-2.62,2.08-6.83,3.95-11.03,3.95-8.65,0-16.69-8.23-16.69-18.9s7.27-18.9,16.31-18.9c2.13,0,6.44.47,10.2,2.03l-1.27,3.79c-2.31-1.48-8.39-4.65-9.61-4.78-8.07.65-11.4,6.67-11.4,15.55,0,11.68,5.74,19.29,14.62,19.29,2,0,4.21-.42,4.73-.88v-12.9h4.15v11.76Z"/>
    <path class="st0" d="M684.96,673.34h4.15v35.26h5.01c1.9,0,8.44-.13,10.39-.23v1.32h-19.55v-36.35Z"/>
    <path class="st0" d="M714.37,691.56c0-10.02,7.22-18.95,16.1-18.95s16.1,8.93,16.1,18.95-7.24,18.85-16.1,18.85-16.1-8.83-16.1-18.85ZM742.23,693.33c0-11.66-5.89-19.16-12.9-19.68-6.36,1.01-10.62,6.31-10.62,16.18,0,11.5,5.74,19.06,12.83,19.55,6.52-.99,10.7-6.33,10.7-16.05Z"/>
    <path class="st0" d="M758.39,673.34h4.44l7.58,29.05,8.26-29.05h1.61l7.94,28.82,2.83-10.67c1.74-6.6,4.36-17.01,4.57-18.15h1.43l-7.5,28.27-2.03,8.07h-1.61l-8.1-29.21-6.02,21.06c-.52,1.77-1.71,6.21-2.21,8.15h-1.63l-9.56-36.35Z"/>
    <path class="st0" d="M834.23,673.34h4.15v36.35h-4.15v-36.35Z"/>
    <path class="st0" d="M872.84,676.95c-2.52-2.05-5.61-3.25-7.97-3.25-3.14,0-6.18,2.1-6.18,5.95,0,3.32,1.92,5.63,7.68,9.79,6.31,4.57,8.15,6.7,8.15,10.8,0,6.08-5.19,10.18-10.98,10.18-3.06,0-5.87-1.25-8.83-3.19l.73-1.19c2.23,2,4.91,3.22,7.58,3.22,4.41,0,7.71-3.12,7.71-7.3,0-3.3-2.05-5.71-7.06-9.11-6-4.05-7.97-7.22-7.97-11.19,0-5.76,4.21-9.04,9.14-9.04,3.38,0,6.44,1.61,8.75,3.19l-.75,1.14Z"/>
    <path class="st0" d="M911.63,691.56c0-10.02,7.22-18.95,16.1-18.95s16.1,8.93,16.1,18.95-7.24,18.85-16.1,18.85-16.1-8.83-16.1-18.85ZM939.49,693.33c0-11.66-5.89-19.16-12.9-19.68-6.36,1.01-10.62,6.31-10.62,16.18,0,11.5,5.74,19.06,12.83,19.55,6.52-.99,10.7-6.33,10.7-16.05Z"/>
    <path class="st0" d="M983.67,696.65c0,12.67-8.15,13.76-11.94,13.76-7.17,0-12.85-3.82-12.85-12.28v-24.8h4.15v23.16c0,8.8,2.78,12.77,9.14,12.77,4.75,0,10.41-2.18,10.41-12.62v-5.45c0-6.65-.18-15.6-.26-17.86h1.35v23.31Z"/>
    <path class="st0" d="M1000.09,673.34h8.31c12.88,0,14.18,6.26,14.18,9.5,0,6.18-4.8,9.01-7.58,9.84l9.19,17.01h-4.83l-8.7-16.3c-2.26-.1-4.73-.39-6.41-.65v16.95h-4.15v-36.35ZM1004.25,691.77c1.9.21,4.1.36,5.84.36.73,0,1.4-.03,1.9-.1,2.34-.83,6.15-2.91,6.15-8.88,0-8.15-7.04-8.72-10.98-8.72h-2.91v17.34Z"/>
    <path class="st0" d="M1080.79,674.66c-1.95-.08-8.54-.23-10.39-.23h-4.88v16.07h3.32c1.56,0,8.49-.05,10.38-.1v1.33c-1.9-.05-8.83-.13-10.38-.13h-3.32v18.1h-4.15v-36.35h19.42v1.32Z"/>
    <path class="st0" d="M1096.91,673.34h4.15v35.26h5.01c1.9,0,8.44-.13,10.39-.23v1.32h-19.55v-36.35Z"/>
    <path class="st0" d="M1126.31,691.56c0-10.02,7.22-18.95,16.1-18.95s16.1,8.93,16.1,18.95-7.24,18.85-16.1,18.85-16.1-8.83-16.1-18.85ZM1154.17,693.33c0-11.66-5.89-19.16-12.9-19.68-6.36,1.01-10.62,6.31-10.62,16.18,0,11.5,5.74,19.06,12.83,19.55,6.52-.99,10.7-6.33,10.7-16.05Z"/>
    <path class="st0" d="M1170.33,673.34h4.44l7.58,29.05,8.26-29.05h1.61l7.94,28.82,2.83-10.67c1.74-6.6,4.36-17.01,4.57-18.15h1.43l-7.5,28.27-2.03,8.07h-1.61l-8.1-29.21-6.02,21.06c-.52,1.77-1.71,6.21-2.21,8.15h-1.63l-9.56-36.35Z"/>
  </g>
  <g>
    <path class="st0" d="M481.82,569.48h6.65l25.94,68.89h-5.89l-8.08-21.86h-30.69l-8.08,21.86h-5.8l25.94-68.89ZM498.74,611.86l-10.07-27.27c-1.14-2.76-2.38-6.18-3.52-9.12h-.1l-3.42,9.12-10.07,27.27h27.18Z"/>
    <path class="st0" d="M543.02,569.48h43.43v4.75h-37.91v25.85h35.92v4.85h-35.92v28.7h37.91v4.75h-43.43v-68.89Z"/>
    <path class="st0" d="M615.72,616.99h5.61c.86,11.78,7.98,18.06,21.86,18.06,12.16,0,19.39-5.51,19.39-15.2,0-7.22-4.18-12.07-12.83-13.4l-16.91-2.57c-10.07-1.52-15.68-8.27-15.68-17.29,0-11.59,9.22-18.53,24.04-18.53s23.19,6.94,24.8,19.39h-5.61c-1.14-9.31-7.79-14.63-19.29-14.63s-18.53,4.94-18.53,13.49c0,6.65,4.18,11.5,13.11,12.83l16.44,2.47c10.07,1.52,16.15,8.08,16.06,18.25-.1,12.73-9.6,19.96-25.18,19.96-17.96,0-26.61-9.41-27.27-22.81Z"/>
    <path class="st0" d="M717.6,574.23h-23.76v-4.75h52.93v4.75h-23.66v64.14h-5.51v-64.14Z"/>
    <path class="st0" d="M777.65,569.48h5.51v30.31h40.77v-30.31h5.51v68.89h-5.51v-33.73h-40.77v33.73h-5.51v-68.89Z"/>
    <path class="st0" d="M867.27,569.48h43.43v4.75h-37.91v25.85h35.92v4.85h-35.92v28.7h37.91v4.75h-43.43v-68.89Z"/>
    <path class="st0" d="M964.67,574.23h-23.76v-4.75h52.93v4.75h-23.66v64.14h-5.51v-64.14Z"/>
    <path class="st0" d="M1024.73,569.48h5.51v68.89h-5.51v-68.89Z"/>
    <path class="st0" d="M1065.31,603.88c0-20.9,12.26-35.82,32.12-35.82,15.77,0,26.23,9.41,28.22,23.38h-5.51c-2.19-11.12-10.07-18.63-22.71-18.63-17.01,0-26.42,13.02-26.42,31.07s9.41,31.17,26.42,31.17c12.83,0,21.29-7.89,23-20.53h5.51c-1.42,15.2-12.64,25.28-28.51,25.28-19.86,0-32.12-15.01-32.12-35.92Z"/>
    <path class="st0" d="M1158.16,616.99h5.61c.86,11.78,7.98,18.06,21.86,18.06,12.16,0,19.39-5.51,19.39-15.2,0-7.22-4.18-12.07-12.83-13.4l-16.91-2.57c-10.07-1.52-15.68-8.27-15.68-17.29,0-11.59,9.22-18.53,24.04-18.53s23.19,6.94,24.8,19.39h-5.61c-1.14-9.31-7.79-14.63-19.29-14.63s-18.53,4.94-18.53,13.49c0,6.65,4.18,11.5,13.11,12.83l16.44,2.47c10.07,1.52,16.15,8.08,16.06,18.25-.1,12.73-9.6,19.96-25.18,19.96-17.96,0-26.61-9.41-27.27-22.81Z"/>
  </g>
  <g>
    <path class="st0" d="M643.4,529.21v-130.12h-45.96v135.59h38.65c2.54-1.8,4.99-3.63,7.31-5.47Z"/>
    <path class="st0" d="M383.44,338.19c0-98.24,36.77-164.88,126.1-172.06,13.5,1.44,80.72,36.48,106.28,52.85l14.08-41.94c-41.65-17.23-89.33-22.4-112.89-22.4-99.96,0-180.39,96.23-180.39,209.12,0,71.73,32.88,133.49,80.13,170.92h58.29c-57.26-30.73-91.61-101.41-91.61-196.49Z"/>
    <polygon class="st0" points="750.84 159.81 707.75 162.68 707.75 534.67 750.84 534.67 750.84 159.81"/>
    <path class="st0" d="M817.09,425.51c0-78.13,31.02-113.46,70.95-120.36,54.58,8.62,88.76,59.75,88.76,134.14,0,44.95-12.18,76-29.58,95.37h32.41c25.33-24.94,42.27-61.02,42.27-102.27,0-78.13-61.18-138.17-124.95-138.17s-124.95,60.04-124.95,138.17c0,41.25,16.94,77.33,42.27,102.27h37.78c-23.81-24-34.95-62.99-34.95-109.16Z"/>
    <path class="st0" d="M1128.08,501.34l48.83-138.45,51.8,171.78h35.81c3.05-10.49,6.58-22.32,10.05-33.62l62.05-201.07h-16.37c-3.45,15.51-22.69,84.74-29.3,105.99l-27.86,91.63-60.32-197.63h-17.52l-69.51,200.5-60.61-200.5h-46.53l72.29,234.69h36.37c3.37-10.92,7.24-22.95,10.83-33.33Z"/>
  </g>
</svg>